<svg xmlns="http://www.w3.org/2000/svg" xmlns:xlink="http://www.w3.org/1999/xlink" width="571.098" height="862.658" preserveAspectRatio="xMidYMid meet" version="1.1" viewBox="-153.969 0 571.098 862.658" style="overflow:hidden;position:relative;top:-.5px"><desc style="-webkit-tap-highlight-color:transparent">Created with Raphaël 2.3.0</desc><defs style="-webkit-tap-highlight-color:transparent"><path id="raphael-marker-block" stroke-linecap="round" d="M5,0 0,2.5 5,5z" style="-webkit-tap-highlight-color:transparent"/><marker id="raphael-marker-endblock33-objrzhdv" markerHeight="3" markerWidth="3" orient="auto" refX="1.5" refY="1.5" style="-webkit-tap-highlight-color:transparent"><use fill="#000" stroke="none" stroke-width="1.667" transform="rotate(180 1.5 1.5) scale(0.6,0.6)" xlink:href="#raphael-marker-block" style="-webkit-tap-highlight-color:transparent"/></marker><marker id="raphael-marker-endblock33-objmg3pj" markerHeight="3" markerWidth="3" orient="auto" refX="1.5" refY="1.5" style="-webkit-tap-highlight-color:transparent"><use fill="#000" stroke="none" stroke-width="1.667" transform="rotate(180 1.5 1.5) scale(0.6,0.6)" xlink:href="#raphael-marker-block" style="-webkit-tap-highlight-color:transparent"/></marker><marker id="raphael-marker-endblock33-objbhqld" markerHeight="3" markerWidth="3" orient="auto" refX="1.5" refY="1.5" style="-webkit-tap-highlight-color:transparent"><use fill="#000" stroke="none" stroke-width="1.667" transform="rotate(180 1.5 1.5) scale(0.6,0.6)" xlink:href="#raphael-marker-block" style="-webkit-tap-highlight-color:transparent"/></marker><marker id="raphael-marker-endblock33-objse6by" markerHeight="3" markerWidth="3" orient="auto" refX="1.5" refY="1.5" style="-webkit-tap-highlight-color:transparent"><use fill="#000" stroke="none" stroke-width="1.667" transform="rotate(180 1.5 1.5) scale(0.6,0.6)" xlink:href="#raphael-marker-block" style="-webkit-tap-highlight-color:transparent"/></marker><marker id="raphael-marker-endblock33-objk13ya" markerHeight="3" markerWidth="3" orient="auto" refX="1.5" refY="1.5" style="-webkit-tap-highlight-color:transparent"><use fill="#000" stroke="none" stroke-width="1.667" transform="rotate(180 1.5 1.5) scale(0.6,0.6)" xlink:href="#raphael-marker-block" style="-webkit-tap-highlight-color:transparent"/></marker><marker id="raphael-marker-endblock33-obj482sy" markerHeight="3" markerWidth="3" orient="auto" refX="1.5" refY="1.5" style="-webkit-tap-highlight-color:transparent"><use fill="#000" stroke="none" stroke-width="1.667" transform="rotate(180 1.5 1.5) scale(0.6,0.6)" xlink:href="#raphael-marker-block" style="-webkit-tap-highlight-color:transparent"/></marker><marker id="raphael-marker-endblock33-objvt2d6" markerHeight="3" markerWidth="3" orient="auto" refX="1.5" refY="1.5" style="-webkit-tap-highlight-color:transparent"><use fill="#000" stroke="none" stroke-width="1.667" transform="rotate(180 1.5 1.5) scale(0.6,0.6)" xlink:href="#raphael-marker-block" style="-webkit-tap-highlight-color:transparent"/></marker><marker id="raphael-marker-endblock33-obj49zyp" markerHeight="3" markerWidth="3" orient="auto" refX="1.5" refY="1.5" style="-webkit-tap-highlight-color:transparent"><use fill="#000" stroke="none" stroke-width="1.667" transform="rotate(180 1.5 1.5) scale(0.6,0.6)" xlink:href="#raphael-marker-block" style="-webkit-tap-highlight-color:transparent"/></marker><marker id="raphael-marker-endblock33-objjwvxb" markerHeight="3" markerWidth="3" orient="auto" refX="1.5" refY="1.5" style="-webkit-tap-highlight-color:transparent"><use fill="#000" stroke="none" stroke-width="1.667" transform="rotate(180 1.5 1.5) scale(0.6,0.6)" xlink:href="#raphael-marker-block" style="-webkit-tap-highlight-color:transparent"/></marker><marker id="raphael-marker-endblock33-obj73p4l" markerHeight="3" markerWidth="3" orient="auto" refX="1.5" refY="1.5" style="-webkit-tap-highlight-color:transparent"><use fill="#000" stroke="none" stroke-width="1.667" transform="rotate(180 1.5 1.5) scale(0.6,0.6)" xlink:href="#raphael-marker-block" style="-webkit-tap-highlight-color:transparent"/></marker></defs><rect style="-webkit-tap-highlight-color:transparent" id="st" width="49.688" height="36" x="0" y="0" fill="#fff" stroke="#000" stroke-width="3" class="flowchart" rx="20" ry="20" transform="matrix(1,0,0,1,80.2969,37.5703)"/><text id="stt" x="10" y="18" fill="#000" stroke="none" stroke-width="1" class="flowchartt" font-family="&quot;Arial&quot;" font-size="14" text-anchor="start" transform="matrix(1,0,0,1,80.2969,37.5703)" style="-webkit-tap-highlight-color:transparent;text-anchor:start;font-family:Arial;font-size:14px"><tspan dy="5" style="-webkit-tap-highlight-color:transparent">Start</tspan></text><rect style="-webkit-tap-highlight-color:transparent" id="para" width="101.703" height="36" x="0" y="0" fill="#fff" stroke="#000" stroke-width="3" class="flowchart" rx="0" ry="0" transform="matrix(1,0,0,1,54.2891,161.1406)"/><text id="parat" x="10" y="18" fill="#000" stroke="none" stroke-width="1" class="flowchartt" font-family="&quot;Arial&quot;" font-size="14" text-anchor="start" transform="matrix(1,0,0,1,54.2891,161.1406)" style="-webkit-tap-highlight-color:transparent;text-anchor:start;font-family:Arial;font-size:14px"><tspan dy="5" style="-webkit-tap-highlight-color:transparent">parallel tasks</tspan></text><rect style="-webkit-tap-highlight-color:transparent" id="validate" width="129.156" height="36" x="0" y="0" fill="#fff" stroke="#000" stroke-width="3" class="flowchart" rx="0" ry="0" transform="matrix(1,0,0,1,246.5547,161.1406)"/><text id="validatet" x="10" y="18" fill="#000" stroke="none" stroke-width="1" class="flowchartt" font-family="&quot;Arial&quot;" font-size="14" text-anchor="start" transform="matrix(1,0,0,1,246.5547,161.1406)" style="-webkit-tap-highlight-color:transparent;text-anchor:start;font-family:Arial;font-size:14px"><tspan dy="5" style="-webkit-tap-highlight-color:transparent">terraform validate</tspan></text><path id="cond" fill="#fff" stroke="#000" stroke-width="3" d="M31.095703125,15.5478515625L0,31.095703125L62.19140625,62.19140625L124.3828125,31.095703125L62.19140625,0L0,31.095703125" class="flowchart" transform="matrix(1,0,0,1,42.9492,395.1855)" style="-webkit-tap-highlight-color:transparent"/><text id="condt" x="36.096" y="31.096" fill="#000" stroke="none" stroke-width="1" class="flowchartt" font-family="&quot;Arial&quot;" font-size="14" text-anchor="start" transform="matrix(1,0,0,1,42.9492,395.1855)" style="-webkit-tap-highlight-color:transparent;text-anchor:start;font-family:Arial;font-size:14px"><tspan dy="4.994" style="-webkit-tap-highlight-color:transparent">Success</tspan></text><rect style="-webkit-tap-highlight-color:transparent" id="plan" width="107.156" height="36" x="0" y="0" fill="#fff" stroke="#000" stroke-width="3" class="flowchart" rx="0" ry="0" transform="matrix(1,0,0,1,51.5625,544.9473)"/><text id="plant" x="10" y="18" fill="#000" stroke="none" stroke-width="1" class="flowchartt" font-family="&quot;Arial&quot;" font-size="14" text-anchor="start" transform="matrix(1,0,0,1,51.5625,544.9473)" style="-webkit-tap-highlight-color:transparent;text-anchor:start;font-family:Arial;font-size:14px"><tspan dy="5" style="-webkit-tap-highlight-color:transparent">terraform plan</tspan></text><path id="approve" fill="#fff" stroke="#000" stroke-width="3" d="M49.5703125,24.78515625L0,49.5703125L99.140625,99.140625L198.28125,49.5703125L99.140625,0L0,49.5703125" class="flowchart" transform="matrix(1,0,0,1,6,636.9473)" style="-webkit-tap-highlight-color:transparent"/><text id="approvet" x="54.57" y="49.57" fill="#000" stroke="none" stroke-width="1" class="flowchartt" font-family="&quot;Arial&quot;" font-size="14" text-anchor="start" transform="matrix(1,0,0,1,6,636.9473)" style="-webkit-tap-highlight-color:transparent;text-anchor:start;font-family:Arial;font-size:14px"><tspan dy="5" style="-webkit-tap-highlight-color:transparent">Plan approved ?</tspan></text><rect style="-webkit-tap-highlight-color:transparent" id="apply" width="114.156" height="36" x="0" y="0" fill="#fff" stroke="#000" stroke-width="3" class="flowchart" rx="0" ry="0" transform="matrix(1,0,0,1,48.0625,823.6582)"/><text id="applyt" x="10" y="18" fill="#000" stroke="none" stroke-width="1" class="flowchartt" font-family="&quot;Arial&quot;" font-size="14" text-anchor="start" transform="matrix(1,0,0,1,48.0625,823.6582)" style="-webkit-tap-highlight-color:transparent;text-anchor:start;font-family:Arial;font-size:14px"><tspan dy="5" style="-webkit-tap-highlight-color:transparent">terraform apply</tspan></text><rect style="-webkit-tap-highlight-color:transparent" id="fmt" width="100.234" height="36" x="0" y="0" fill="#fff" stroke="#000" stroke-width="3" class="flowchart" rx="0" ry="0" transform="matrix(1,0,0,1,-150.9688,161.1406)"/><text id="fmtt" x="10" y="18" fill="#000" stroke="none" stroke-width="1" class="flowchartt" font-family="&quot;Arial&quot;" font-size="14" text-anchor="start" transform="matrix(1,0,0,1,-150.9688,161.1406)" style="-webkit-tap-highlight-color:transparent;text-anchor:start;font-family:Arial;font-size:14px"><tspan dy="5" style="-webkit-tap-highlight-color:transparent">terraform fmt</tspan></text><rect style="-webkit-tap-highlight-color:transparent" id="driftctl" width="57.344" height="36" x="0" y="0" fill="#fff" stroke="#000" stroke-width="3" class="flowchart" rx="0" ry="0" transform="matrix(1,0,0,1,76.4688,284.7109)"/><text id="driftctlt" x="10" y="18" fill="#000" stroke="none" stroke-width="1" class="flowchartt" font-family="&quot;Arial&quot;" font-size="14" text-anchor="start" transform="matrix(1,0,0,1,76.4688,284.7109)" style="-webkit-tap-highlight-color:transparent;text-anchor:start;font-family:Arial;font-size:14px"><tspan dy="5" style="-webkit-tap-highlight-color:transparent">driftctl</tspan></text><path fill="none" stroke="#000" stroke-width="3" marker-end="url(#raphael-marker-endblock33-objrzhdv)" d="M105.140625,73.5703125C105.140625,73.5703125,105.140625,138.7586783040315,105.140625,156.64728259205185" style="-webkit-tap-highlight-color:transparent"/><path fill="none" stroke="#000" stroke-width="3" marker-end="url(#raphael-marker-endblock33-objmg3pj)" d="M155.9921875,179.140625C155.9921875,179.140625,223.79003930091858,179.140625,242.06367904413491,179.140625" style="-webkit-tap-highlight-color:transparent"/><path fill="none" stroke="#000" stroke-width="3" marker-end="url(#raphael-marker-endblock33-objbhqld)" d="M54.2890625,179.140625C54.2890625,179.140625,-26.164383949246258,179.140625,-46.238461652158776,179.140625" style="-webkit-tap-highlight-color:transparent"/><path fill="none" stroke="#000" stroke-width="3" marker-end="url(#raphael-marker-endblock33-objse6by)" d="M105.140625,197.140625C105.140625,197.140625,105.140625,262.3289908040315,105.140625,280.21759509205185" style="-webkit-tap-highlight-color:transparent"/><path fill="none" stroke="#000" stroke-width="3" marker-end="url(#raphael-marker-endblock33-objk13ya)" d="M311.1328125,197.140625C311.1328125,197.140625,311.1328125,370.185546875,311.1328125,370.185546875C311.1328125,370.185546875,105.140625,370.185546875,105.140625,370.185546875C105.140625,370.185546875,105.140625,383.4895181655884,105.140625,390.6871745083481" style="-webkit-tap-highlight-color:transparent"/><path fill="none" stroke="#000" stroke-width="3" marker-end="url(#raphael-marker-endblock33-obj482sy)" d="M105.140625,457.376953125C105.140625,457.376953125,105.140625,522.5653189290315,105.140625,540.4539232170519" style="-webkit-tap-highlight-color:transparent"/><text x="110.141" y="467.377" fill="#000" stroke="none" stroke-width="1" font-family="&quot;Arial&quot;" font-size="14" text-anchor="start" style="-webkit-tap-highlight-color:transparent;text-anchor:start;font-family:Arial;font-size:14px"><tspan dy="4.994" style="-webkit-tap-highlight-color:transparent">yes</tspan></text><path fill="none" stroke="#000" stroke-width="3" marker-end="url(#raphael-marker-endblock33-objvt2d6)" d="M105.140625,580.947265625C105.140625,580.947265625,105.140625,619.14803647995,105.140625,632.4474259426352" style="-webkit-tap-highlight-color:transparent"/><path fill="none" stroke="#000" stroke-width="3" marker-end="url(#raphael-marker-endblock33-obj49zyp)" d="M105.140625,736.087890625C105.140625,736.087890625,105.140625,801.2762564290315,105.140625,819.1648607170519" style="-webkit-tap-highlight-color:transparent"/><text x="110.141" y="746.088" fill="#000" stroke="none" stroke-width="1" font-family="&quot;Arial&quot;" font-size="14" text-anchor="start" style="-webkit-tap-highlight-color:transparent;text-anchor:start;font-family:Arial;font-size:14px"><tspan dy="5.002" style="-webkit-tap-highlight-color:transparent">yes</tspan></text><path fill="none" stroke="#000" stroke-width="3" marker-end="url(#raphael-marker-endblock33-objjwvxb)" d="M-100.8515625,197.140625C-100.8515625,197.140625,-100.8515625,360.185546875,-100.8515625,360.185546875C-100.8515625,360.185546875,105.140625,360.185546875,105.140625,360.185546875C105.140625,360.185546875,105.140625,381.2286186218262,105.140625,390.68156100809574" style="-webkit-tap-highlight-color:transparent"/><path fill="none" stroke="#000" stroke-width="3" marker-end="url(#raphael-marker-endblock33-obj73p4l)" d="M105.140625,320.7109375C105.140625,320.7109375,105.140625,375.185546875,105.140625,375.185546875C105.140625,375.185546875,105.140625,384.7869539260864,105.140625,390.68469321820885" style="-webkit-tap-highlight-color:transparent"/></svg>